<svg xmlns="http://www.w3.org/2000/svg" xml:space="preserve" style="enable-background:new 0 0 62 62" viewBox="0 0 62 62"><path d="M31 .4C14.1.4.4 14.1.4 31 .4 47.9 14.1 61.6 31 61.6S61.6 47.9 61.6 31C61.6 14.1 47.9.4 31 .4zM45.2 44H16.8c-1.2 0-2.2-1-2.2-2.2s1-2.2 2.2-2.2h28.5c1.2 0 2.2 1 2.2 2.2s-1 2.2-2.3 2.2zm0-10.8H16.8c-1.2 0-2.2-1-2.2-2.2s1-2.2 2.2-2.2h28.5c1.2 0 2.2 1 2.2 2.2s-1 2.2-2.3 2.2zm0-10.7H16.8c-1.2 0-2.2-1-2.2-2.2s1-2.2 2.2-2.2h28.5c1.2 0 2.2 1 2.2 2.2s-1 2.2-2.3 2.2z" style="fill:#fff"/></svg>